<svg xmlns="http://www.w3.org/2000/svg" height="800" width="1200" viewBox="-34.260375 -24.308225 296.92325 145.84935"><path d="M33.173 26.525c-.301-.472-.686-.866-1.143-1.157-.445-.275-.925-.468-1.443-.565-.485-.097-.965-.14-1.438-.14-.48 0-.986.056-1.517.166-.552.109-1.088.305-1.614.566-.54.268-1.036.638-1.495 1.096-.469.468-.889 1.061-1.248 1.774l-14.05 25.5c-.089.184-.138.405-.138.643-.009.269.093.568.321.764.232.188.507.252.79.252h2.908c.297 0 .58-.102.835-.266.255-.166.464-.383.568-.658l4.834-9.899h11.678l1.147 9.772c.047.255.136.481.269.666.193.272.515.385.813.385h2.886c.339 0 .685-.098.926-.342.245-.256.329-.594.329-.941v-.206l-3.605-25.566c-.104-.732-.301-1.347-.613-1.844M21.348 40.482l6.071-10.948c.229-.437.811-.513 1.158-.498.746.038.827.498.827.498l1.282 10.948zm38.755-8.032c-.78-.787-1.742-1.403-2.87-1.847-1.148-.449-2.487-.675-4.023-.675-3.483 0-6.38.965-8.613 2.918-2.235 1.944-3.715 4.746-4.456 8.353l-.624 3.091c-.191.998-.294 1.944-.294 2.83 0 1.554.283 2.894.865 3.999.562 1.09 1.316 1.982 2.251 2.67.92.687 1.974 1.183 3.152 1.49 1.152.299 2.337.453 3.539.453h.029c1.635 0 3.085-.064 4.36-.201 1.265-.131 2.619-.322 4.058-.555.446-.07.799-.166 1.08-.443.233-.234.352-.555.425-.931l.286-1.502.006-.038v-.215c.014-.248-.109-.539-.338-.693-.218-.158-.464-.191-.721-.197h-.286c-1.163.156-2.459.293-3.951.429-1.477.123-2.913.192-4.301.192-1.785 0-3.14-.355-4.109-1.027-.919-.643-1.397-1.656-1.407-3.26 0-.395.025-.804.07-1.231.045-.407.144-.848.291-1.327l.057-.22H60.22c.415 0 .819-.108 1.08-.426.199-.252.323-.555.398-.893l.383-1.866c.199-.962.295-1.878.295-2.739 0-1.19-.182-2.318-.55-3.368-.368-1.063-.949-1.993-1.723-2.771m-3.058 8.215H45.321c.217-.875.511-1.668.891-2.405.425-.81.941-1.524 1.563-2.136.609-.608 1.313-1.077 2.12-1.407.799-.332 1.695-.5 2.696-.5 3.305.067 4.642 1.312 4.707 4.239 0 .662-.084 1.401-.253 2.209m22.105-7.558l.335-1.862.005-.039v-.215c.016-.298-.128-.639-.394-.82-.265-.187-.568-.239-.903-.239h-.096c-1.146 0-2.311.142-3.486.411-.951.218-1.928.648-2.941 1.279v-.231c.005-.31-.077-.624-.309-.846-.228-.225-.543-.304-.846-.304h-2.244c-.357 0-.705.127-.979.372-.264.218-.455.513-.546.839L62.491 54.05v.222c0 .31.083.622.312.845.223.224.531.307.835.307h2.345c.362.004.708-.133.991-.363.284-.221.494-.517.587-.849l3.448-18.345c1.081-.608 2.075-1.026 2.98-1.268.956-.25 2.102-.381 3.437-.381h.145c.757.04 1.465-.38 1.579-1.111m19.306-.705c-.795-.786-1.775-1.392-2.919-1.827-1.158-.433-2.487-.643-3.994-.643-7.245-.043-11.75 3.804-13.072 11.14l-.614 3.358c-.07.431-.128.837-.175 1.242-.049.417-.073.838-.073 1.271 0 1.281.197 2.46.597 3.534.4 1.072.991 1.998 1.771 2.784.78.789 1.751 1.395 2.899 1.828 1.153.431 2.474.643 3.946.643 1.913 0 3.628-.252 5.126-.775 1.498-.516 2.79-1.26 3.875-2.233 1.074-.966 1.954-2.142 2.625-3.515.669-1.364 1.168-2.901 1.492-4.616l.621-3.358c.067-.431.125-.85.176-1.267.045-.431.068-.858.068-1.289 0-1.251-.19-2.412-.575-3.489-.385-1.07-.981-2.012-1.774-2.788m-2.78 7.388c-.028.396-.086.817-.179 1.278l-.616 3.362c-.19 1.058-.502 2.006-.935 2.86-.441.862-.974 1.593-1.602 2.202-.625.609-1.346 1.088-2.167 1.435-.812.339-1.713.519-2.705.519-1.809 0-3.028-.391-3.705-1.06-.698-.687-1.078-1.745-1.078-3.265-.003-.735.092-1.576.278-2.528l.618-3.358c.401-2.207 1.24-3.903 2.514-5.159 1.263-1.235 2.841-1.852 4.841-1.858 1.811 0 3.021.407 3.701 1.105.706.714 1.081 1.793 1.084 3.311 0 .367-.019.755-.049 1.156m16.566-16.095c.003-.293-.073-.592-.294-.811-.222-.221-.522-.296-.81-.296h-2.484c-.736-.05-1.398.476-1.483 1.205L101.45 54.05v.222c0 .304.068.608.286.835.208.225.509.316.794.316h2.507c.356.004.708-.143.968-.383.244-.23.42-.508.51-.823l5.727-30.302zm7.093 6.546h-2.282c-.354 0-.706.127-.99.362-.282.222-.491.513-.584.849l-4.258 22.598v.222c-.002.31.09.636.333.856.236.221.544.295.853.295h2.305c.361 0 .709-.133.992-.363.283-.223.492-.509.584-.849l4.258-22.596v-.224c.002-.312-.092-.636-.336-.855-.24-.222-.551-.295-.875-.295m-2.711-2.339h2.574c.311 0 .604-.053.855-.243.169-.119.374-.3.634-.539l4.804-4.03c.211-.192.381-.404.395-.731-.01-.555-.587-.705-.915-.716h-3.149c-.338.011-.644.059-.902.243-.17.127-.375.301-.641.548l-4.058 3.947c-.222.219-.414.459-.427.814 0 .464.515.707.83.707m26.119 4.161c-.627-.675-1.427-1.2-2.379-1.579-.974-.369-2.119-.552-3.432-.552-1.66 0-3.102.21-4.341.643-.935.327-1.853.706-2.767 1.146l.012-.088.01-.033v-.209c.002-.275-.1-.542-.257-.752-.22-.294-.574-.401-.899-.398h-2.341c-.356 0-.707.136-.979.372-.267.218-.459.515-.543.841l-4.261 22.596v.222c-.005.269.091.538.251.75.207.283.553.401.877.401h2.362c.364.004.709-.133.995-.363.281-.223.488-.509.578-.843l3.496-18.454c1.41-.615 2.588-1.022 3.516-1.229.989-.21 1.923-.317 2.814-.317 1.703-.009 2.781.312 3.221.759.503.492.77 1.18.775 2.159 0 .33-.027.703-.071 1.117-.05.421-.107.836-.167 1.239l-2.487 14.524v.217c-.002.309.093.637.332.857.24.227.551.294.873.294h2.292c.352.006.703-.134.986-.361.281-.223.492-.512.578-.849l2.494-14.526c.16-.851.246-1.675.246-2.471.002-.983-.14-1.918-.429-2.791-.287-.883-.742-1.659-1.355-2.322m24.114.387c-.78-.787-1.741-1.399-2.868-1.847-1.148-.449-2.488-.671-4.027-.671-3.479-.004-6.377.961-8.608 2.914-2.237 1.944-3.715 4.746-4.455 8.353l-.623 3.091c-.196.998-.297 1.944-.297 2.825 0 1.556.279 2.899.864 4.003.566 1.086 1.32 1.982 2.25 2.67.916.687 1.979 1.177 3.154 1.49 1.16.301 2.356.453 3.564.453 1.637 0 3.092-.064 4.367-.199 1.261-.133 2.615-.324 4.048-.557.448-.068.808-.166 1.085-.443.237-.239.348-.555.426-.924l.288-1.509.003-.03v-.228c.012-.243-.111-.534-.337-.688-.222-.158-.465-.191-.726-.197h-.284c-1.162.156-2.457.293-3.948.429-1.477.123-2.916.192-4.295.192-1.795 0-3.15-.355-4.117-1.027-.916-.643-1.397-1.656-1.404-3.26 0-.395.025-.804.066-1.224.047-.414.143-.855.293-1.334l.063-.22h15.633c.415 0 .816-.108 1.08-.426.208-.252.326-.555.404-.891l.381-1.868c.195-.964.291-1.878.291-2.739 0-1.19-.18-2.318-.545-3.372-.373-1.058-.946-1.984-1.726-2.766m-3.055 8.215h-11.729c.213-.875.512-1.668.893-2.405.427-.81.943-1.524 1.564-2.136.612-.608 1.316-1.077 2.118-1.412.8-.327 1.695-.495 2.696-.495 3.306.067 4.645 1.312 4.709 4.239.001.662-.083 1.401-.251 2.209m29.841-8.614c-.013-.653-.604-.987-1.217-1.093-1.207-.3-2.558-.543-4.034-.741-1.48-.184-2.943-.285-4.396-.285-1.467 0-2.888.175-4.264.52-1.38.351-2.648.939-3.79 1.748-1.145.818-2.135 1.895-2.956 3.22-.83 1.34-1.435 2.988-1.822 4.943l-.857 4.375c-.195.929-.292 1.845-.292 2.733 0 1.397.2 2.625.626 3.675.416 1.042.984 1.903 1.702 2.59.714.674 1.558 1.18 2.524 1.506.94.324 1.945.49 3.002.49h.024c.813 0 1.55-.049 2.218-.162.657-.104 1.301-.272 1.92-.51.605-.225 1.217-.507 1.821-.843.351-.19.718-.41 1.106-.647l-.067.36-.005.037v.305c0 .271.066.548.225.767.241.315.592.379.934.385h1.91c.355.004.705-.143.976-.374.269-.224.46-.517.545-.838l4.106-21.708c.04-.138.061-.289.061-.453m-8.33 17.133c-1.257.765-2.388 1.351-3.395 1.765-1.031.42-2.068.629-3.125.629-1.055-.002-1.91-.307-2.646-.914-.66-.547-1.059-1.59-1.059-3.238 0-.31.015-.635.052-.973.024-.343.073-.666.134-.97l.856-4.556c.438-2.294 1.272-3.985 2.491-5.125 1.193-1.125 2.961-1.714 5.373-1.717 1.006 0 1.854.045 2.547.13.545.067 1.062.141 1.558.229zm27.557-18.672c-.512-.085-.992-.169-1.434-.242-.458-.075-.96-.137-1.492-.184-.529-.042-1.127-.074-1.777-.112-.664-.027-1.459-.042-2.379-.042-1.207 0-2.418.106-3.629.315-1.236.214-2.347.593-3.309 1.157-.965.563-1.766 1.315-2.387 2.233-.639.961-.942 2.151-.942 3.539.002 2.169 1.472 4.075 4.17 5.724l4.349 2.606c1.113.637 1.834 1.191 2.129 1.571.324.42.457.797.463 1.19-.006.643-.139 1.151-.387 1.555-.267.426-.607.75-1.03.998-.453.254-.985.445-1.593.568-.621.125-1.265.189-1.939.189-.398 0-.913-.012-1.525-.045-.621-.024-1.268-.063-1.951-.108-.678-.039-1.352-.099-2.015-.159-.667-.057-1.282-.113-1.854-.167h-.328c-.629-.044-1.24.382-1.338 1.009l-.291 1.561-.004.033v.18c-.012.322.135.691.435.875.206.136.444.232.7.299.574.126 1.184.236 1.845.318.66.091 1.329.16 2.015.205.666.045 1.319.08 1.957.113.641.024 1.219.041 1.737.041h.034c1.32 0 2.607-.129 3.867-.383 1.279-.26 2.422-.691 3.419-1.293 1.002-.607 1.813-1.42 2.415-2.427.619-1.028.91-2.291.91-3.763.004-1.059-.324-2.071-.949-2.985-.645-.94-1.797-1.891-3.458-2.916l-4.302-2.604c-.82-.493-1.442-.95-1.855-1.353-.385-.384-.544-.747-.544-1.188 0-.573.138-.987.378-1.291.276-.34.619-.614 1.063-.825.449-.214.947-.363 1.498-.446.561-.088 1.108-.129 1.627-.129 1.324 0 2.613.036 3.857.111 1.251.069 2.286.149 3.104.242h.188c.679.043 1.3-.442 1.388-1.116l.24-1.46.008-.036v-.214c.026-.602-.506-1.077-1.084-1.144" fill="#0081C6"/><path d="M66.983 64.498c-1.084-.239-2.389-.469-3.921-.686-1.536-.229-3.027-.338-4.462-.338-1.799 0-3.412.191-4.833.582-1.419.389-2.673 1.022-3.753 1.898-1.073.877-1.97 2.011-2.677 3.406-.712 1.395-1.255 3.093-1.64 5.121l-.619 3.222c-.199 1.071-.295 2.079-.295 2.998 0 1.413.227 2.64.686 3.667.461 1.033 1.095 1.881 1.903 2.542.802.653 1.77 1.135 2.891 1.452 1.119.312 2.324.473 3.615.473.357 0 .782-.025 1.277-.073.499-.04 1.006-.088 1.536-.153.525-.058 1.021-.127 1.486-.197.321-.049.609-.098.864-.139l-.042.209c-.19.994-.426 1.813-.702 2.47-.272.655-.65 1.167-1.127 1.558-.479.383-1.075.666-1.794.831-.723.181-1.609.265-2.645.265-.629 0-1.323-.024-2.062-.069-.744-.044-1.493-.087-2.241-.13-.743-.045-1.43-.094-2.064-.152-.635-.066-1.155-.118-1.562-.173h-.177c-.287 0-.552.057-.768.214-.225.141-.372.378-.445.656l-.25 1.291v.046h.006c-.067.096-.044.153-.054.215.01.478.414.774.976.922.654.185 1.694.361 3.131.533 1.443.185 3.072.274 4.891.274 1.725 0 3.235-.138 4.527-.406 1.294-.266 2.416-.745 3.35-1.426.938-.688 1.706-1.617 2.31-2.771.6-1.164 1.057-2.607 1.378-4.329l4.294-22.549v-.022c0-.041.005-.07.005-.07.026-.086.047-.165.043-.241.004-.501-.441-.812-1.036-.921m-7.194 20.17c-.342.076-.725.136-1.146.188-.494.062-.983.113-1.473.16-.491.041-.96.064-1.42.082-.461.018-.864.026-1.206.026-1.792 0-3.09-.326-3.897-.927-.796-.586-1.22-1.674-1.222-3.314 0-.43.019-.917.067-1.441.047-.52.138-1.069.258-1.651l.625-3.233c.504-2.561 1.373-4.424 2.582-5.601 1.209-1.171 2.881-1.767 5.068-1.771 1.008 0 1.965.049 2.881.149.817.093 1.518.194 2.105.295zm80.855-25.69v-.199c0-.565-.404-.926-.981-.926h-2.435c-.305-.007-.598.106-.85.313-.256.195-.426.445-.503.736l-.245 1.92v.199c0 .568.41.933.985.933h2.438c.307 0 .59-.121.845-.313.251-.199.427-.447.507-.74M45.22 67.32c.718.017 1.259-.314 1.36-.93l.336-1.861.008-.019v-.194c-.004-.555-.475-.838-1.078-.838h-.096c-1.132-.004-2.279.135-3.44.396-1.048.251-2.146.762-3.304 1.541l.095-.485.001-.011v-.206c0-.555-.382-.925-.938-.925h-2.242c-.303-.005-.594.108-.83.321-.234.192-.407.444-.475.725l-4.253 22.564v.203c0 .549.38.92.937.92h2.345c.303 0 .587-.109.841-.306.255-.205.432-.455.508-.737l3.465-18.427c1.125-.639 2.17-1.086 3.124-1.342.981-.259 2.142-.39 3.501-.39h.135zm80.261.179h4.964c.312 0 .601-.115.838-.323.235-.199.401-.447.474-.729l.291-1.518.002-.011v-.206c-.002-.563-.404-.925-.98-.925h-4.887l.668-3.705v-.156c0-.481-.318-.843-.795-.843h-.142l-2.558.357c-.658.084-1.135.467-1.235 1.063l-.582 3.283-3.171.084c-.29-.002-.57.084-.797.262-.23.177-.387.416-.463.693l-.241 1.206-.003.022v.152c-.016.509.404.849.956.885l3.03.377-2.883 15.185c-.056.356-.105.66-.135.914-.031.265-.049.547-.049.851-.006 1.577.575 2.767 1.738 3.435 1.125.657 2.511.982 4.152.982.451 0 .951-.023 1.496-.073.545-.036 1.059-.088 1.537-.153.379-.062.65-.151.838-.326.16-.148.275-.353.35-.588l.289-1.599.004-.017v-.196c.011-.247-.086-.517-.342-.594-.152-.06-.336-.08-.547-.08h-2.908c-.746 0-1.283-.072-1.582-.203-.23-.091-.389-.364-.389-.983 0-.302.045-.724.141-1.242zm62.405-2.119c-.006-.497-.447-.773-1.035-.882-1.209-.298-2.551-.546-4.024-.738-1.465-.19-2.922-.286-4.368-.286-1.445 0-2.852.176-4.199.516-1.357.343-2.602.914-3.726 1.716-1.118.799-2.084 1.849-2.892 3.155-.813 1.307-1.411 2.934-1.799 4.863l-.854 4.375c-.193.924-.292 1.825-.29 2.693 0 1.375.2 2.576.61 3.593.412 1.017.961 1.854 1.646 2.511.693.655 1.512 1.143 2.447 1.461.927.317 1.912.479 2.958.479.801 0 1.526-.055 2.18-.161.647-.103 1.274-.265 1.871-.5.603-.219 1.203-.495 1.797-.83.476-.255.981-.562 1.521-.911l-.153.868v.3c-.003.24.062.461.183.625.166.231.44.295.756.299h1.908c.308 0 .594-.113.832-.319.236-.203.403-.447.471-.728l4.111-21.707c.031-.089.049-.23.049-.392m-7.908 17.262c-1.288.795-2.463 1.41-3.504 1.838-1.058.428-2.127.646-3.207.646-1.102-.006-2.021-.326-2.795-.968-.732-.606-1.133-1.731-1.133-3.409 0-.315.014-.655.043-.995.033-.35.08-.68.141-.993l.859-4.551c.44-2.324 1.297-4.07 2.558-5.252 1.25-1.169 3.079-1.771 5.519-1.771 1.016 0 1.869.047 2.572.131l.033-.225-.03.225c.628.076 1.226.166 1.793.267zm28.217-17.666c.021-.492-.366-.849-.894-.922-.515-.087-.99-.173-1.433-.242-.455-.078-.948-.14-1.476-.181-.526-.048-1.114-.082-1.772-.11-.651-.031-1.442-.043-2.372-.043-1.184-.004-2.379.103-3.586.31-1.211.209-2.292.587-3.23 1.133-.943.542-1.719 1.272-2.317 2.167-.61.909-.908 2.063-.908 3.409.002 2.056 1.396 3.903 4.067 5.536l4.35 2.613c1.117.641 1.852 1.193 2.186 1.615.346.456.509.878.509 1.328 0 .682-.146 1.225-.417 1.672-.288.455-.659.809-1.119 1.066-.467.273-1.018.472-1.65.599-.64.132-1.301.199-1.982.199-.405 0-.918-.015-1.537-.044-.62-.034-1.27-.064-1.948-.111a66.58 66.58 0 01-2.022-.16 84.017 84.017 0 01-1.855-.175h-.311c-.567-.019-1.022.302-1.123.839l-.285 1.551-.004.021v.151c-.01.281.107.551.336.699.184.114.396.2.64.268.558.123 1.157.229 1.81.311.656.092 1.326.162 1.998.206.668.042 1.317.079 1.955.112.644.025 1.217.043 1.732.043 1.316 0 2.602-.129 3.854-.378 1.266-.255 2.377-.679 3.348-1.267.979-.594 1.757-1.383 2.338-2.349.595-.985.885-2.207.885-3.653 0-1.012-.307-1.978-.912-2.858-.613-.903-1.742-1.847-3.39-2.849l-4.304-2.608c-.83-.498-1.463-.962-1.897-1.386-.417-.412-.604-.842-.606-1.338 0-.614.147-1.084.426-1.431.298-.373.674-.666 1.139-.891.471-.222.99-.388 1.563-.47.576-.082 1.127-.125 1.658-.125 1.328 0 2.623.031 3.869.103 1.256.08 2.29.162 3.114.248h.17c.603.022 1.073-.343 1.166-.933l.239-1.459-.215-.039h.218v-.177zm-46.449.561c-.598-.647-1.366-1.154-2.3-1.518-.938-.369-2.057-.545-3.35-.545-1.641 0-3.057.209-4.258.635-1.062.367-2.101.81-3.13 1.315l.079-.501v-.211c.001-.225-.072-.439-.215-.621-.161-.22-.432-.309-.717-.304h-2.344c-.307-.005-.596.108-.83.315-.238.202-.402.451-.478.73l-4.257 22.564v.196c0 .226.083.438.218.621.153.215.414.306.703.306h2.354c.31.004.604-.109.855-.312.249-.192.426-.449.508-.731l3.51-18.547c1.467-.646 2.69-1.072 3.664-1.287 1.004-.217 1.957-.324 2.861-.324 1.725-.002 2.859.303 3.372.822.556.541.835 1.295.84 2.317 0 .338-.022.726-.071 1.146-.043.422-.103.836-.164 1.244l-2.769 14.549v.196c0 .563.409.927.985.927h2.292c.305.004.592-.109.85-.306.252-.198.433-.455.499-.737l2.779-14.548c.158-.839.238-1.653.238-2.434 0-.961-.139-1.865-.418-2.716-.272-.852-.709-1.606-1.306-2.241m-48.564-.004c-.598-.644-1.365-1.15-2.301-1.516-.931-.367-2.051-.543-3.341-.543-1.64 0-3.064.209-4.273.635-1.05.367-2.089.81-3.118 1.315l.074-.497v-.215c.006-.229-.074-.439-.209-.618-.161-.223-.43-.315-.725-.307h-2.336c-.306 0-.595.108-.838.315-.23.198-.4.446-.474.734l-4.248 22.561v.203c0 .219.076.438.211.614.162.215.427.306.712.306h2.348c.307 0 .6-.109.854-.306.252-.205.423-.457.504-.737l3.511-18.547c1.47-.652 2.694-1.076 3.665-1.287 1.007-.217 1.957-.324 2.866-.324 1.724-.002 2.848.303 3.37.822.555.541.837 1.295.841 2.317 0 .34-.024.726-.072 1.146-.045.422-.101.838-.165 1.246l-2.765 14.547v.203c0 .557.407.92.981.92h2.287c.311 0 .603-.109.855-.312.251-.192.428-.449.505-.731l2.771-14.548c.157-.839.24-1.653.237-2.429.003-.966-.134-1.87-.416-2.725-.277-.838-.712-1.603-1.311-2.242m-24.559.391c-.754-.758-1.688-1.358-2.792-1.788-1.113-.445-2.429-.662-3.941-.662-3.444-.003-6.276.952-8.47 2.862-2.188 1.909-3.648 4.655-4.383 8.226l-.62 3.096c-.192.981-.295 1.914-.295 2.785 0 1.522.274 2.83.843 3.902.549 1.057 1.282 1.924 2.181 2.59.894.668 1.923 1.146 3.077 1.448 1.141.297 2.3.446 3.486.446h.028c1.629 0 3.072-.067 4.337-.193 1.267-.133 2.61-.322 4.045-.557.43-.063.745-.157.955-.378.192-.191.302-.46.37-.808l.287-1.51.002-.023v-.192c0-.435-.393-.664-.839-.664h-.285c-1.143.147-2.439.289-3.932.422-1.489.132-2.928.199-4.319.199-1.813 0-3.225-.367-4.237-1.069-.997-.688-1.496-1.804-1.502-3.439 0-.401.025-.823.075-1.256.044-.426.14-.883.297-1.373l.098-.373h15.803c.385 0 .711-.104.915-.346.17-.216.282-.486.353-.799l.38-1.863c.193-.951.289-1.851.289-2.695.006-1.17-.176-2.266-.532-3.297-.36-1.031-.918-1.928-1.674-2.691m-2.71 8.237l-.009.049H73.721c.219-.994.544-1.899.97-2.726.438-.834.972-1.562 1.606-2.201.633-.623 1.36-1.108 2.193-1.454.829-.337 1.754-.509 2.778-.509 3.368.035 4.899 1.431 4.928 4.461 0 .714-.094 1.513-.283 2.38m52.428-9.716h-2.289c-.307 0-.6.109-.854.313-.25.194-.428.448-.506.729l-4.084 21.91v.203c0 .557.408.92.984.92h2.301c.298 0 .592-.109.838-.306.256-.205.425-.455.508-.737l4.085-21.9v-.207c0-.562-.414-.925-.983-.925M24.089 59.628c-.3-.473-.687-.866-1.141-1.154-.446-.277-.927-.471-1.44-.57a7.7778 7.7778 0 00-1.443-.135c-.481 0-.988.051-1.518.161-.552.111-1.091.308-1.612.568-.538.271-1.037.639-1.496 1.097-.467.469-.887 1.061-1.248 1.771L.148 86.866c-.101.185-.148.407-.148.642-.002.271.096.571.324.767.229.188.507.25.79.25h2.905c.3 0 .583-.101.837-.263.254-.169.466-.387.574-.659l4.83-9.899h11.679l1.144 9.774c.047.252.136.478.27.666.194.268.514.381.811.381h2.891c.339 0 .682-.095.926-.345.243-.25.326-.59.326-.937v-.207l-3.603-25.564c-.1-.732-.303-1.347-.615-1.844M12.26 73.587l6.072-10.95c.23-.437.815-.513 1.163-.495.748.035.824.495.824.495l1.284 10.95z" fill="#A6A8AB"/><path d="M193.142 11.936c-9.351 1.62-22.051 2.826-31.617 5.688-.143.043-.121.122.033.116 23.084-.688 48.076-.575 66.74.05.045.002.111-.083.104-.128-.446-2.209-2.164-4.709-7.342-4.686h-2.99s-.074.055-.063.08c.842 2.113-1.519 3.513-3.046 2.236-.643-.543-1.282-1.873.354-3.023 1.209-.85 3.107-2.093 4.211-2.791 3.953-2.505 3.402-6.105-1.85-6.505C205 2.013 182.353.719 173.397.001c-.2-.014-.315.131-.174.207 7.398 4.01 14.136 4.374 21.539 7.133 4.214 1.571 3.382 3.728-1.62 4.595" fill="#0081C6"/></svg>